<svg width="271" height="146" viewBox="0 0 271 146" fill="none" xmlns="http://www.w3.org/2000/svg">
<path d="M2.29039 15V3.25455H6.47701C7.3908 3.25455 8.14783 3.42086 8.7481 3.7535C9.34837 4.08613 9.79762 4.54112 10.0958 5.11845C10.3941 5.69196 10.5432 6.33811 10.5432 7.05691C10.5432 7.77953 10.3922 8.4295 10.0901 9.00684C9.79189 9.58034 9.34073 10.0353 8.73663 10.3718C8.13636 10.7044 7.38124 10.8707 6.47127 10.8707H3.59226V9.36815H6.31069C6.88802 9.36815 7.35639 9.26874 7.71579 9.06992C8.07518 8.86728 8.339 8.592 8.50723 8.24407C8.67546 7.89614 8.75957 7.50042 8.75957 7.05691C8.75957 6.61339 8.67546 6.21958 8.50723 5.87548C8.339 5.53137 8.07327 5.26183 7.71005 5.06683C7.35065 4.87184 6.87655 4.77434 6.28775 4.77434H4.06254V15H2.29039ZM22.8234 9.12727C22.8234 10.3813 22.594 11.4595 22.1352 12.3619C21.6764 13.2604 21.0475 13.9524 20.2484 14.438C19.4531 14.9197 18.5489 15.1606 17.5357 15.1606C16.5187 15.1606 15.6106 14.9197 14.8115 14.438C14.0163 13.9524 13.3892 13.2584 12.9304 12.3561C12.4716 11.4538 12.2422 10.3775 12.2422 9.12727C12.2422 7.8732 12.4716 6.79692 12.9304 5.89842C13.3892 4.9961 14.0163 4.30407 14.8115 3.82232C15.6106 3.33675 16.5187 3.09396 17.5357 3.09396C18.5489 3.09396 19.4531 3.33675 20.2484 3.82232C21.0475 4.30407 21.6764 4.9961 22.1352 5.89842C22.594 6.79692 22.8234 7.8732 22.8234 9.12727ZM21.0685 9.12727C21.0685 8.17143 20.9136 7.3666 20.604 6.7128C20.2981 6.05518 19.8775 5.55814 19.3422 5.22168C18.8108 4.8814 18.2086 4.71126 17.5357 4.71126C16.8589 4.71126 16.2548 4.8814 15.7234 5.22168C15.1919 5.55814 14.7714 6.05518 14.4617 6.7128C14.1558 7.3666 14.0029 8.17143 14.0029 9.12727C14.0029 10.0831 14.1558 10.8899 14.4617 11.5475C14.7714 12.2013 15.1919 12.6983 15.7234 13.0386C16.2548 13.3751 16.8589 13.5433 17.5357 13.5433C18.2086 13.5433 18.8108 13.3751 19.3422 13.0386C19.8775 12.6983 20.2981 12.2013 20.604 11.5475C20.9136 10.8899 21.0685 10.0831 21.0685 9.12727ZM25.0329 15V3.25455H29.2195C30.1333 3.25455 30.8903 3.42086 31.4906 3.7535C32.0909 4.08613 32.5401 4.54112 32.8383 5.11845C33.1366 5.69196 33.2857 6.33811 33.2857 7.05691C33.2857 7.77953 33.1346 8.4295 32.8326 9.00684C32.5344 9.58034 32.0832 10.0353 31.4791 10.3718C30.8788 10.7044 30.1237 10.8707 29.2138 10.8707H26.3347V9.36815H29.0532C29.6305 9.36815 30.0989 9.26874 30.4583 9.06992C30.8177 8.86728 31.0815 8.592 31.2497 8.24407C31.4179 7.89614 31.5021 7.50042 31.5021 7.05691C31.5021 6.61339 31.4179 6.21958 31.2497 5.87548C31.0815 5.53137 30.8158 5.26183 30.4525 5.06683C30.0931 4.87184 29.619 4.77434 29.0302 4.77434H26.805V15H25.0329ZM42.9163 3.25455H44.6942V10.9797C44.6942 11.8017 44.5011 12.5301 44.1149 13.1648C43.7288 13.7956 43.1859 14.2927 42.4862 14.6559C41.7865 15.0153 40.9664 15.195 40.0258 15.195C39.0891 15.195 38.2709 15.0153 37.5712 14.6559C36.8715 14.2927 36.3286 13.7956 35.9424 13.1648C35.5563 12.5301 35.3632 11.8017 35.3632 10.9797V3.25455H37.1353V10.8363C37.1353 11.3678 37.252 11.84 37.4852 12.2529C37.7222 12.6658 38.0568 12.9908 38.4888 13.2279C38.9209 13.4611 39.4332 13.5777 40.0258 13.5777C40.6223 13.5777 41.1365 13.4611 41.5686 13.2279C42.0044 12.9908 42.3371 12.6658 42.5665 12.2529C42.7997 11.84 42.9163 11.3678 42.9163 10.8363V3.25455ZM47.2707 15V3.25455H49.0428V13.4745H54.365V15H47.2707ZM57.9781 15H56.097L60.3237 3.25455H62.3711L66.5979 15H64.7168L61.3962 5.388H61.3044L57.9781 15ZM58.2935 10.4005H64.3956V11.8916H58.2935V10.4005ZM68.2941 15V3.25455H72.4807C73.3906 3.25455 74.1458 3.4113 74.746 3.72482C75.3501 4.03834 75.8013 4.4723 76.0995 5.02669C76.3977 5.57726 76.5468 6.21385 76.5468 6.93647C76.5468 7.65527 76.3958 8.28804 76.0938 8.83478C75.7955 9.3777 75.3444 9.80019 74.7403 10.1022C74.14 10.4043 73.3849 10.5553 72.4749 10.5553H69.3034V9.02978H72.3144C72.8879 9.02978 73.3543 8.94757 73.7137 8.78317C74.0769 8.61876 74.3427 8.3798 74.5109 8.06628C74.6791 7.75276 74.7632 7.37616 74.7632 6.93647C74.7632 6.49296 74.6772 6.10871 74.5052 5.78372C74.3369 5.45873 74.0712 5.21021 73.708 5.03816C73.3486 4.86228 72.8764 4.77434 72.2914 4.77434H70.0662V15H68.2941ZM74.0922 9.70078L76.9942 15H74.9754L72.1308 9.70078H74.0922ZM86.7797 15H82.9773V3.25455H86.9001C88.0509 3.25455 89.0393 3.48968 89.8651 3.95996C90.691 4.42641 91.3238 5.09742 91.7635 5.97298C92.207 6.84471 92.4287 7.89041 92.4287 9.11007C92.4287 10.3336 92.2051 11.385 91.7577 12.2644C91.3142 13.1437 90.6719 13.8205 89.8307 14.2946C88.9896 14.7649 87.9726 15 86.7797 15ZM84.7494 13.4515H86.6822C87.5768 13.4515 88.3205 13.2833 88.9131 12.9468C89.5057 12.6066 89.9493 12.1153 90.2437 11.4729C90.5381 10.8268 90.6853 10.0392 90.6853 9.11007C90.6853 8.18863 90.5381 7.40675 90.2437 6.76442C89.9531 6.12209 89.5191 5.63461 88.9418 5.30197C88.3645 4.96934 87.6476 4.80302 86.7911 4.80302H84.7494V13.4515ZM94.6324 15V3.25455H101.996V4.78008H96.4046V8.35877H101.612V9.87857H96.4046V13.4745H102.065V15H94.6324ZM110.77 6.34002C110.708 5.7971 110.456 5.37653 110.012 5.0783C109.569 4.77625 109.011 4.62523 108.338 4.62523C107.856 4.62523 107.439 4.7017 107.088 4.85463C106.736 5.00375 106.462 5.21021 106.267 5.47402C106.076 5.73401 105.981 6.03033 105.981 6.36296C105.981 6.64207 106.046 6.88294 106.176 7.08558C106.31 7.28822 106.484 7.45836 106.698 7.596C106.916 7.72982 107.149 7.84261 107.397 7.93438C107.646 8.02231 107.885 8.09496 108.114 8.15231L109.261 8.45053C109.636 8.54229 110.02 8.66655 110.414 8.82331C110.808 8.98007 111.173 9.18654 111.509 9.4427C111.846 9.69887 112.117 10.0162 112.324 10.3947C112.534 10.7732 112.639 11.2263 112.639 11.7539C112.639 12.4192 112.467 13.0099 112.123 13.5261C111.783 14.0422 111.288 14.4494 110.638 14.7477C109.991 15.0459 109.21 15.195 108.292 15.195C107.413 15.195 106.652 15.0554 106.009 14.7763C105.367 14.4972 104.864 14.1015 104.501 13.5892C104.138 13.073 103.937 12.4613 103.899 11.7539H105.677C105.711 12.1783 105.849 12.532 106.09 12.8149C106.334 13.094 106.646 13.3024 107.025 13.4401C107.407 13.5739 107.826 13.6408 108.281 13.6408C108.781 13.6408 109.227 13.5624 109.617 13.4056C110.011 13.2451 110.32 13.0233 110.546 12.7404C110.771 12.4536 110.884 12.1191 110.884 11.7367C110.884 11.3888 110.785 11.104 110.586 10.8822C110.391 10.6605 110.125 10.4769 109.789 10.3316C109.456 10.1864 109.08 10.0583 108.659 9.94739L107.271 9.56887C106.331 9.31271 105.585 8.9361 105.034 8.43906C104.488 7.94202 104.214 7.2844 104.214 6.46619C104.214 5.78945 104.398 5.19874 104.765 4.69405C105.132 4.18936 105.629 3.79747 106.256 3.51836C106.883 3.23543 107.59 3.09396 108.378 3.09396C109.173 3.09396 109.875 3.23352 110.483 3.51262C111.095 3.79173 111.576 4.17598 111.928 4.66538C112.28 5.15095 112.463 5.70916 112.479 6.34002H110.77ZM114.178 4.78008V3.25455H123.268V4.78008H119.603V15H117.837V4.78008H114.178ZM127.049 3.25455V15H125.276V3.25455H127.049ZM139.109 3.25455V15H137.481L131.51 6.3859H131.401V15H129.629V3.25455H131.27L137.246 11.8801H137.355V3.25455H139.109ZM142.687 15H140.806L145.032 3.25455H147.08L151.307 15H149.425L146.105 5.388H146.013L142.687 15ZM143.002 10.4005H149.104V11.8916H143.002V10.4005ZM151.036 4.78008V3.25455H160.126V4.78008H156.461V15H154.695V4.78008H151.036ZM163.907 3.25455V15H162.134V3.25455H163.907ZM176.69 9.12727C176.69 10.3813 176.461 11.4595 176.002 12.3619C175.543 13.2604 174.914 13.9524 174.115 14.438C173.32 14.9197 172.415 15.1606 171.402 15.1606C170.385 15.1606 169.477 14.9197 168.678 14.438C167.883 13.9524 167.256 13.2584 166.797 12.3561C166.338 11.4538 166.109 10.3775 166.109 9.12727C166.109 7.8732 166.338 6.79692 166.797 5.89842C167.256 4.9961 167.883 4.30407 168.678 3.82232C169.477 3.33675 170.385 3.09396 171.402 3.09396C172.415 3.09396 173.32 3.33675 174.115 3.82232C174.914 4.30407 175.543 4.9961 176.002 5.89842C176.461 6.79692 176.69 7.8732 176.69 9.12727ZM174.935 9.12727C174.935 8.17143 174.78 7.3666 174.471 6.7128C174.165 6.05518 173.744 5.55814 173.209 5.22168C172.677 4.8814 172.075 4.71126 171.402 4.71126C170.726 4.71126 170.121 4.8814 169.59 5.22168C169.059 5.55814 168.638 6.05518 168.328 6.7128C168.022 7.3666 167.869 8.17143 167.869 9.12727C167.869 10.0831 168.022 10.8899 168.328 11.5475C168.638 12.2013 169.059 12.6983 169.59 13.0386C170.121 13.3751 170.726 13.5433 171.402 13.5433C172.075 13.5433 172.677 13.3751 173.209 13.0386C173.744 12.6983 174.165 12.2013 174.471 11.5475C174.78 10.8899 174.935 10.0831 174.935 9.12727ZM188.38 3.25455V15H186.751L180.781 6.3859H180.672V15H178.899V3.25455H180.54L186.516 11.8801H186.625V3.25455H188.38Z" fill="#C89235"/>
<path d="M2.255 37.5H11.165C14.1717 37.5 16.4267 38.3067 17.93 39.92C19.4333 41.5333 20.185 43.8983 20.185 47.015V50.81C20.185 53.9267 19.4333 56.2917 17.93 57.905C16.4267 59.5183 14.1717 60.325 11.165 60.325H8.305V76H2.255V37.5ZM11.165 54.825C12.155 54.825 12.8883 54.55 13.365 54C13.8783 53.45 14.135 52.515 14.135 51.195V46.63C14.135 45.31 13.8783 44.375 13.365 43.825C12.8883 43.275 12.155 43 11.165 43H8.305V54.825H11.165ZM23.4708 37.5H29.5208V70.5H39.4758V76H23.4708V37.5ZM47.2669 37.5H55.4619L61.7319 76H55.6819L54.5819 68.355V68.465H47.7069L46.6069 76H40.9969L47.2669 37.5ZM53.8669 63.24L51.1719 44.21H51.0619L48.4219 63.24H53.8669ZM73.0847 76.55C70.188 76.55 67.9697 75.725 66.4297 74.075C64.9264 72.425 64.1747 70.0967 64.1747 67.09V46.41C64.1747 43.4033 64.9264 41.075 66.4297 39.425C67.9697 37.775 70.188 36.95 73.0847 36.95C75.9814 36.95 78.1814 37.775 79.6847 39.425C81.2247 41.075 81.9947 43.4033 81.9947 46.41V50.48H76.2747V46.025C76.2747 43.6417 75.2664 42.45 73.2497 42.45C71.233 42.45 70.2247 43.6417 70.2247 46.025V67.53C70.2247 69.8767 71.233 71.05 73.2497 71.05C75.2664 71.05 76.2747 69.8767 76.2747 67.53V61.645H81.9947V67.09C81.9947 70.0967 81.2247 72.425 79.6847 74.075C78.1814 75.725 75.9814 76.55 73.0847 76.55ZM85.6144 37.5H102.114V43H91.6644V53.175H99.9694V58.675H91.6644V70.5H102.114V76H85.6144V37.5ZM113.567 76.55C110.634 76.55 108.416 75.725 106.912 74.075C105.409 72.3883 104.657 69.9867 104.657 66.87V64.67H110.377V67.31C110.377 69.8033 111.422 71.05 113.512 71.05C114.539 71.05 115.309 70.7567 115.822 70.17C116.372 69.5467 116.647 68.5567 116.647 67.2C116.647 65.5867 116.281 64.175 115.547 62.965C114.814 61.7183 113.457 60.2333 111.477 58.51C108.984 56.31 107.242 54.33 106.252 52.57C105.262 50.7733 104.767 48.7567 104.767 46.52C104.767 43.4767 105.537 41.13 107.077 39.48C108.617 37.7933 110.854 36.95 113.787 36.95C116.684 36.95 118.866 37.7933 120.332 39.48C121.836 41.13 122.587 43.5133 122.587 46.63V48.225H116.867V46.245C116.867 44.925 116.611 43.9717 116.097 43.385C115.584 42.7617 114.832 42.45 113.842 42.45C111.826 42.45 110.817 43.6783 110.817 46.135C110.817 47.5283 111.184 48.83 111.917 50.04C112.687 51.25 114.062 52.7167 116.042 54.44C118.572 56.64 120.314 58.6383 121.267 60.435C122.221 62.2317 122.697 64.34 122.697 66.76C122.697 69.9133 121.909 72.3333 120.332 74.02C118.792 75.7067 116.537 76.55 113.567 76.55ZM133.545 37.5H139.375L142.07 67.09H142.18L145.04 37.5H151.64L154.5 67.09H154.61L157.305 37.5H162.53L158.625 76H151.09L148.34 50.04H148.23L145.48 76H137.45L133.545 37.5ZM174.335 76.55C171.365 76.55 169.092 75.7067 167.515 74.02C165.938 72.3333 165.15 69.95 165.15 66.87V46.63C165.15 43.55 165.938 41.1667 167.515 39.48C169.092 37.7933 171.365 36.95 174.335 36.95C177.305 36.95 179.578 37.7933 181.155 39.48C182.732 41.1667 183.52 43.55 183.52 46.63V66.87C183.52 69.95 182.732 72.3333 181.155 74.02C179.578 75.7067 177.305 76.55 174.335 76.55ZM174.335 71.05C176.425 71.05 177.47 69.785 177.47 67.255V46.245C177.47 43.715 176.425 42.45 174.335 42.45C172.245 42.45 171.2 43.715 171.2 46.245V67.255C171.2 69.785 172.245 71.05 174.335 71.05ZM187.611 37.5H196.576C199.693 37.5 201.966 38.2333 203.396 39.7C204.826 41.13 205.541 43.3483 205.541 46.355V48.72C205.541 52.7167 204.221 55.2467 201.581 56.31V56.42C203.048 56.86 204.075 57.7583 204.661 59.115C205.285 60.4717 205.596 62.2867 205.596 64.56V71.325C205.596 72.425 205.633 73.3233 205.706 74.02C205.78 74.68 205.963 75.34 206.256 76H200.096C199.876 75.3767 199.73 74.79 199.656 74.24C199.583 73.69 199.546 72.7 199.546 71.27V64.23C199.546 62.47 199.253 61.2417 198.666 60.545C198.116 59.8483 197.145 59.5 195.751 59.5H193.661V76H187.611V37.5ZM195.861 54C197.071 54 197.97 53.6883 198.556 53.065C199.18 52.4417 199.491 51.3967 199.491 49.93V46.96C199.491 45.5667 199.235 44.5583 198.721 43.935C198.245 43.3117 197.475 43 196.411 43H193.661V54H195.861ZM214.417 43H208.092V37.5H226.792V43H220.467V76H214.417V43ZM229.721 37.5H235.771V53.175H242.261V37.5H248.311V76H242.261V58.675H235.771V76H229.721V37.5ZM10.835 134.55C7.90167 134.55 5.665 133.725 4.125 132.075C2.585 130.388 1.815 127.987 1.815 124.87V104.63C1.815 101.513 2.585 99.13 4.125 97.48C5.665 95.7933 7.90167 94.95 10.835 94.95C13.7683 94.95 16.005 95.7933 17.545 97.48C19.085 99.13 19.855 101.513 19.855 104.63V107.93H14.135V104.245C14.135 101.715 13.09 100.45 11 100.45C8.91 100.45 7.865 101.715 7.865 104.245V125.31C7.865 127.803 8.91 129.05 11 129.05C13.09 129.05 14.135 127.803 14.135 125.31V117.775H11.11V112.275H19.855V124.87C19.855 127.987 19.085 130.388 17.545 132.075C16.005 133.725 13.7683 134.55 10.835 134.55ZM23.7394 95.5H40.2394V101H29.7894V111.175H38.0944V116.675H29.7894V128.5H40.2394V134H23.7394V95.5ZM48.4498 101H42.1248V95.5H60.8248V101H54.4998V134H48.4498V101ZM69.0211 101H62.6961V95.5H81.3961V101H75.0711V134H69.0211V101ZM84.3253 95.5H90.3753V134H84.3253V95.5ZM94.9064 95.5H102.496L108.381 118.545H108.491V95.5H113.881V134H107.666L100.406 105.895H100.296V134H94.9064V95.5ZM126.958 134.55C124.025 134.55 121.788 133.725 120.248 132.075C118.708 130.388 117.938 127.987 117.938 124.87V104.63C117.938 101.513 118.708 99.13 120.248 97.48C121.788 95.7933 124.025 94.95 126.958 94.95C129.891 94.95 132.128 95.7933 133.668 97.48C135.208 99.13 135.978 101.513 135.978 104.63V107.93H130.258V104.245C130.258 101.715 129.213 100.45 127.123 100.45C125.033 100.45 123.988 101.715 123.988 104.245V125.31C123.988 127.803 125.033 129.05 127.123 129.05C129.213 129.05 130.258 127.803 130.258 125.31V117.775H127.233V112.275H135.978V124.87C135.978 127.987 135.208 130.388 133.668 132.075C132.128 133.725 129.891 134.55 126.958 134.55ZM148.671 95.5H154.721V128.5H164.676V134H148.671V95.5ZM176.107 134.55C173.137 134.55 170.864 133.707 169.287 132.02C167.711 130.333 166.922 127.95 166.922 124.87V104.63C166.922 101.55 167.711 99.1667 169.287 97.48C170.864 95.7933 173.137 94.95 176.107 94.95C179.077 94.95 181.351 95.7933 182.927 97.48C184.504 99.1667 185.292 101.55 185.292 104.63V124.87C185.292 127.95 184.504 130.333 182.927 132.02C181.351 133.707 179.077 134.55 176.107 134.55ZM176.107 129.05C178.197 129.05 179.242 127.785 179.242 125.255V104.245C179.242 101.715 178.197 100.45 176.107 100.45C174.017 100.45 172.972 101.715 172.972 104.245V125.255C172.972 127.785 174.017 129.05 176.107 129.05ZM197.249 134.55C194.316 134.55 192.097 133.725 190.594 132.075C189.091 130.388 188.339 127.987 188.339 124.87V122.67H194.059V125.31C194.059 127.803 195.104 129.05 197.194 129.05C198.221 129.05 198.991 128.757 199.504 128.17C200.054 127.547 200.329 126.557 200.329 125.2C200.329 123.587 199.962 122.175 199.229 120.965C198.496 119.718 197.139 118.233 195.159 116.51C192.666 114.31 190.924 112.33 189.934 110.57C188.944 108.773 188.449 106.757 188.449 104.52C188.449 101.477 189.219 99.13 190.759 97.48C192.299 95.7933 194.536 94.95 197.469 94.95C200.366 94.95 202.547 95.7933 204.014 97.48C205.517 99.13 206.269 101.513 206.269 104.63V106.225H200.549V104.245C200.549 102.925 200.292 101.972 199.779 101.385C199.266 100.762 198.514 100.45 197.524 100.45C195.507 100.45 194.499 101.678 194.499 104.135C194.499 105.528 194.866 106.83 195.599 108.04C196.369 109.25 197.744 110.717 199.724 112.44C202.254 114.64 203.996 116.638 204.949 118.435C205.902 120.232 206.379 122.34 206.379 124.76C206.379 127.913 205.591 130.333 204.014 132.02C202.474 133.707 200.219 134.55 197.249 134.55ZM214.578 101H208.253V95.5H226.953V101H220.628V134H214.578V101ZM238.691 95.5H244.741V134H238.691V95.5ZM249.272 95.5H256.862L262.747 118.545H262.857V95.5H268.247V134H262.032L254.772 105.895H254.662V134H249.272V95.5Z" fill="black"/>
</svg>
